STARTFONT 2.1
FONT -FontForge-Digital7-Book-I-Normal--32-310-75-75-P-128-ISO10646-1
SIZE 31 75 75
FONTBOUNDINGBOX 16 27 0 -3
COMMENT "Generated by fontforge, http://fontforge.sourceforge.net"
COMMENT "Created by Sizenko Alexander. (c) 2008 Style-7. All rights reserved. http://www.styleseven.com"
STARTPROPERTIES 39
FOUNDRY "FontForge"
FAMILY_NAME "Digital7"
WEIGHT_NAME "Book"
SLANT "I"
SETWIDTH_NAME "Normal"
ADD_STYLE_NAME ""
PIXEL_SIZE 32
POINT_SIZE 310
RESOLUTION_X 75
RESOLUTION_Y 75
SPACING "P"
AVERAGE_WIDTH 128
CHARSET_REGISTRY "ISO10646"
CHARSET_ENCODING "1"
FONTNAME_REGISTRY ""
CHARSET_COLLECTIONS "ISO10646-1"
FONT_NAME "Digital-7"
FACE_NAME "Digital-7"
COPYRIGHT "Created by Sizenko Alexander. (c) 2008 Style-7. All rights reserved. http://www.styleseven.com"
FONT_VERSION "1.020 April 07 2011"
FONT_ASCENT 26
FONT_DESCENT 6
UNDERLINE_POSITION -5
UNDERLINE_THICKNESS 3
X_HEIGHT 20
CAP_HEIGHT 20
RAW_ASCENT 800
RAW_DESCENT 200
NORM_SPACE 9
RELATIVE_WEIGHT 40
RELATIVE_SETWIDTH 50
SUPERSCRIPT_X 0
SUPERSCRIPT_Y 13
SUPERSCRIPT_SIZE 18
SUBSCRIPT_X 0
SUBSCRIPT_Y 4
SUBSCRIPT_SIZE 18
AVG_LOWERCASE_WIDTH 138
AVG_UPPERCASE_WIDTH 138
ENDPROPERTIES
CHARS 107
STARTCHAR space
ENCODING 32
SWIDTH 272 0
DWIDTH 9 0
BBX 1 1 0 0
BITMAP
00
ENDCHAR
STARTCHAR exclam
ENCODING 33
SWIDTH 163 0
DWIDTH 5 0
BBX 2 21 2 0
BITMAP
40
C0
C0
C0
C0
C0
C0
C0
C0
40
00
40
40
C0
C0
C0
C0
00
00
C0
C0
ENDCHAR
STARTCHAR quotedbl
ENCODING 34
SWIDTH 310 0
DWIDTH 9 0
BBX 7 6 1 15
BITMAP
C6
C6
C6
C6
C6
84
ENDCHAR
STARTCHAR numbersign
ENCODING 35
SWIDTH 490 0
DWIDTH 16 0
BBX 12 14 2 3
BITMAP
2100
3180
3180
F7F0
C670
3180
3180
3180
C670
C670
2100
3180
3180
2100
ENDCHAR
STARTCHAR dollar
ENCODING 36
SWIDTH 472 0
DWIDTH 15 0
BBX 12 27 2 -3
BITMAP
0600
0600
0000
FFE0
FFE0
0000
C600
C600
C600
C600
C600
C000
BFC0
7FE0
3FD0
0030
0630
0630
0630
0630
0630
0030
7FF0
FFF0
0000
0600
0600
ENDCHAR
STARTCHAR percent
ENCODING 37
SWIDTH 545 0
DWIDTH 17 0
BBX 15 21 1 0
BITMAP
7C18
F61C
8638
C638
C270
DE70
FEE0
00E0
00C0
00C0
0000
0600
0600
0E00
0E7C
1CF6
1C86
38C6
38C2
70DE
30FE
ENDCHAR
STARTCHAR ampersand
ENCODING 38
SWIDTH 509 0
DWIDTH 16 0
BBX 13 23 2 -3
BITMAP
7FC0
7FC0
60C0
60C0
60C0
60C0
4040
4040
0000
7FC0
FFE0
C060
C060
C060
C060
C060
C060
C000
FFF0
FFF8
0000
0060
0020
ENDCHAR
STARTCHAR quotesingle
ENCODING 39
SWIDTH 163 0
DWIDTH 5 0
BBX 2 6 2 15
BITMAP
C0
C0
C0
C0
C0
80
ENDCHAR
STARTCHAR parenleft
ENCODING 40
SWIDTH 318 0
DWIDTH 10 0
BBX 6 21 2 0
BITMAP
3C
3C
C0
C0
C0
C0
C0
C0
C0
80
00
80
C0
C0
C0
C0
C0
C0
C0
3C
3C
ENDCHAR
STARTCHAR parenright
ENCODING 41
SWIDTH 318 0
DWIDTH 10 0
BBX 7 21 2 0
BITMAP
F0
F0
06
06
06
06
06
06
06
02
00
02
06
06
06
06
06
06
06
F0
F0
ENDCHAR
STARTCHAR asterisk
ENCODING 42
SWIDTH 390 0
DWIDTH 13 0
BBX 8 11 2 5
BITMAP
10
18
99
FF
FF
3C
FF
FF
99
18
10
ENDCHAR
STARTCHAR plus
ENCODING 43
SWIDTH 400 0
DWIDTH 13 0
BBX 8 9 2 6
BITMAP
10
18
18
18
FF
FF
18
18
18
ENDCHAR
STARTCHAR comma
ENCODING 44
SWIDTH 163 0
DWIDTH 5 0
BBX 2 5 2 -3
BITMAP
C0
C0
C0
C0
C0
ENDCHAR
STARTCHAR hyphen
ENCODING 45
SWIDTH 400 0
DWIDTH 13 0
BBX 9 2 2 9
BITMAP
FF80
FF80
ENDCHAR
STARTCHAR period
ENCODING 46
SWIDTH 163 0
DWIDTH 5 0
BBX 2 2 2 0
BITMAP
C0
C0
ENDCHAR
STARTCHAR slash
ENCODING 47
SWIDTH 472 0
DWIDTH 15 0
BBX 12 21 2 0
BITMAP
0060
0070
00E0
00E0
01C0
01C0
0380
0380
0300
0300
0000
0800
1800
1800
3800
3800
7000
7000
E000
E000
C000
ENDCHAR
STARTCHAR zero
ENCODING 48
SWIDTH 472 0
DWIDTH 14 0
BBX 12 21 1 0
BITMAP
FFF0
7FF0
C030
C030
C030
C030
C030
C030
C030
8010
0000
8010
C030
C030
C030
C030
C030
C030
C030
FFF0
FFF0
ENDCHAR
STARTCHAR one
ENCODING 49
SWIDTH 163 0
DWIDTH 5 0
BBX 2 21 2 0
BITMAP
40
C0
C0
C0
C0
C0
C0
C0
C0
40
00
40
C0
C0
C0
C0
C0
C0
C0
C0
40
ENDCHAR
STARTCHAR two
ENCODING 50
SWIDTH 472 0
DWIDTH 14 0
BBX 12 21 1 0
BITMAP
FFF0
7FF0
0030
0030
0030
0030
0030
0030
0030
0010
7FE0
FFE0
C000
C000
C000
C000
C000
C000
C000
FFC0
FFE0
ENDCHAR
STARTCHAR three
ENCODING 51
SWIDTH 472 0
DWIDTH 15 0
BBX 11 21 3 0
BITMAP
FFE0
FFE0
0060
0060
0060
0060
0060
0060
0060
0020
7FC0
7FE0
0060
0060
0060
0060
0060
0060
0060
FFE0
FFE0
ENDCHAR
STARTCHAR four
ENCODING 52
SWIDTH 472 0
DWIDTH 14 0
BBX 12 21 1 0
BITMAP
0010
8030
C030
C030
C030
C030
C030
C030
C030
8010
7FE0
7FF0
0030
0030
0030
0030
0030
0030
0030
0030
0010
ENDCHAR
STARTCHAR five
ENCODING 53
SWIDTH 472 0
DWIDTH 14 0
BBX 12 21 1 0
BITMAP
FFE0
7FC0
C000
C000
C000
C000
C000
C000
C000
8000
7FE0
7FF0
0030
0030
0030
0030
0030
0030
0030
7FF0
FFF0
ENDCHAR
STARTCHAR six
ENCODING 54
SWIDTH 472 0
DWIDTH 14 0
BBX 12 21 1 0
BITMAP
FFE0
7FC0
C000
C000
C000
C000
C000
C000
C000
8000
7FE0
FFF0
C030
C030
C030
C030
C030
C030
C030
FFF0
FFF0
ENDCHAR
STARTCHAR seven
ENCODING 55
SWIDTH 472 0
DWIDTH 14 0
BBX 12 21 1 0
BITMAP
FFF0
7FF0
C030
C030
C030
C030
C030
C030
C030
8010
0000
0010
0030
0030
0030
0030
0030
0030
0030
0030
0010
ENDCHAR
STARTCHAR eight
ENCODING 56
SWIDTH 472 0
DWIDTH 14 0
BBX 12 21 1 0
BITMAP
FFF0
7FF0
C030
C030
C030
C030
C030
C030
C030
8010
7FE0
FFF0
C030
C030
C030
C030
C030
C030
C030
FFF0
FFF0
ENDCHAR
STARTCHAR nine
ENCODING 57
SWIDTH 472 0
DWIDTH 14 0
BBX 12 21 1 0
BITMAP
FFF0
7FF0
C030
C030
C030
C030
C030
C030
C030
8010
7FE0
7FF0
0030
0030
0030
0030
0030
0030
0030
7FF0
FFF0
ENDCHAR
STARTCHAR colon
ENCODING 58
SWIDTH 163 0
DWIDTH 5 0
BBX 2 11 2 5
BITMAP
C0
C0
00
00
00
00
00
00
00
C0
C0
ENDCHAR
STARTCHAR semicolon
ENCODING 59
SWIDTH 163 0
DWIDTH 5 0
BBX 2 19 2 -3
BITMAP
C0
C0
00
00
00
00
00
00
00
00
00
00
00
C0
C0
C0
C0
C0
80
ENDCHAR
STARTCHAR less
ENCODING 60
SWIDTH 336 0
DWIDTH 11 0
BBX 7 13 2 4
BITMAP
06
0E
1C
38
70
E0
00
E0
70
38
1C
0E
06
ENDCHAR
STARTCHAR equal
ENCODING 61
SWIDTH 400 0
DWIDTH 13 0
BBX 9 7 2 7
BITMAP
FF80
FF80
0000
0000
0000
FF80
FF80
ENDCHAR
STARTCHAR greater
ENCODING 62
SWIDTH 336 0
DWIDTH 11 0
BBX 7 13 2 4
BITMAP
C0
E0
70
38
1C
1E
00
1E
1C
38
70
E0
C0
ENDCHAR
STARTCHAR question
ENCODING 63
SWIDTH 472 0
DWIDTH 14 0
BBX 12 21 1 0
BITMAP
FFF0
7FF0
0030
0030
0030
0030
0030
0030
0030
0010
7FE0
FFE0
C000
C000
C000
C000
0000
0000
0000
C000
C000
ENDCHAR
STARTCHAR at
ENCODING 64
SWIDTH 472 0
DWIDTH 15 0
BBX 12 21 2 0
BITMAP
7FF0
7FF0
C030
C030
C030
C7B0
C7B0
CC30
CC30
8810
0000
8810
CC30
CC30
C7B0
C7F0
C000
C000
C000
FFC0
FFC0
ENDCHAR
STARTCHAR A
ENCODING 65
SWIDTH 472 0
DWIDTH 14 0
BBX 12 21 1 0
BITMAP
FFF0
7FF0
C030
C030
C030
C030
C030
C030
C030
8010
7FE0
FFF0
C030
C030
C030
C030
C030
C030
C030
C030
8010
ENDCHAR
STARTCHAR B
ENCODING 66
SWIDTH 472 0
DWIDTH 14 0
BBX 12 21 1 0
BITMAP
FFC0
7FC0
C030
C030
C030
C030
C030
C030
C030
8010
7FE0
FFF0
C030
C030
C030
C030
C030
C030
C030
7FC0
FFC0
ENDCHAR
STARTCHAR C
ENCODING 67
SWIDTH 436 0
DWIDTH 14 0
BBX 11 21 2 0
BITMAP
FFC0
FFC0
C000
C000
C000
C000
C000
C000
C000
8000
0000
8000
C000
C000
C000
C000
C000
C000
C000
FFC0
FFE0
ENDCHAR
STARTCHAR D
ENCODING 68
SWIDTH 472 0
DWIDTH 14 0
BBX 12 21 1 0
BITMAP
FFC0
7FC0
C030
C030
C030
C030
C030
C030
C030
8010
0000
8010
C030
C030
C030
C030
C030
C030
C030
7FC0
FFC0
ENDCHAR
STARTCHAR E
ENCODING 69
SWIDTH 436 0
DWIDTH 14 0
BBX 11 21 2 0
BITMAP
FFC0
FFC0
C000
C000
C000
C000
C000
C000
C000
8000
7FC0
FFC0
C000
C000
C000
C000
C000
C000
C000
FFC0
FFE0
ENDCHAR
STARTCHAR F
ENCODING 70
SWIDTH 436 0
DWIDTH 14 0
BBX 10 21 2 0
BITMAP
FFC0
FFC0
C000
C000
C000
C000
C000
C000
C000
8000
7FC0
FFC0
C000
C000
C000
C000
C000
C000
C000
C000
8000
ENDCHAR
STARTCHAR G
ENCODING 71
SWIDTH 472 0
DWIDTH 14 0
BBX 12 21 1 0
BITMAP
FFE0
7FC0
C000
C000
C000
C000
C000
C000
C000
8000
01E0
81F0
C030
C030
C030
C030
C030
C030
C030
FFF0
FFF0
ENDCHAR
STARTCHAR H
ENCODING 72
SWIDTH 472 0
DWIDTH 14 0
BBX 12 21 1 0
BITMAP
0010
C030
C030
C030
C030
C030
C030
C030
C030
8010
FFE0
FFF0
C030
C030
C030
C030
C030
C030
C030
C030
8010
ENDCHAR
STARTCHAR I
ENCODING 73
SWIDTH 163 0
DWIDTH 5 0
BBX 2 21 2 0
BITMAP
40
C0
C0
C0
C0
C0
C0
C0
C0
40
00
40
C0
C0
C0
C0
C0
C0
C0
C0
40
ENDCHAR
STARTCHAR J
ENCODING 74
SWIDTH 472 0
DWIDTH 14 0
BBX 12 21 1 0
BITMAP
0010
0030
0030
0030
0030
0030
0030
0030
0030
0010
0000
8010
C030
C030
C030
C030
C030
C030
C030
FFF0
FFF0
ENDCHAR
STARTCHAR K
ENCODING 75
SWIDTH 472 0
DWIDTH 14 0
BBX 12 21 1 0
BITMAP
8070
C0F0
C1E0
C3C0
C780
CF00
DE00
DC00
D800
8000
7FE0
FFF0
C030
C030
C030
C030
C030
C030
C030
C030
8010
ENDCHAR
STARTCHAR L
ENCODING 76
SWIDTH 472 0
DWIDTH 15 0
BBX 11 21 2 0
BITMAP
8000
C000
C000
C000
C000
C000
C000
C000
C000
8000
0000
8000
C000
C000
C000
C000
C000
C000
C000
FFE0
FFE0
ENDCHAR
STARTCHAR M
ENCODING 77
SWIDTH 472 0
DWIDTH 14 0
BBX 12 21 1 0
BITMAP
FFF0
7FF0
C030
C630
C630
C630
C630
C630
C630
8610
0000
8010
C030
C030
C030
C030
C030
C030
C030
C030
8010
ENDCHAR
STARTCHAR N
ENCODING 78
SWIDTH 472 0
DWIDTH 14 0
BBX 12 21 1 0
BITMAP
8010
C030
C030
DC30
DE30
CF30
C7B0
C3F0
C1F0
8010
0000
8010
C030
C030
C030
C030
C030
C030
C030
C030
8010
ENDCHAR
STARTCHAR O
ENCODING 79
SWIDTH 472 0
DWIDTH 14 0
BBX 12 21 1 0
BITMAP
1FC0
1FC0
C030
C030
C030
C030
C030
C030
C030
8010
0000
8010
C030
C030
C030
C030
C030
C030
C030
1FC0
1FC0
ENDCHAR
STARTCHAR P
ENCODING 80
SWIDTH 472 0
DWIDTH 14 0
BBX 12 21 1 0
BITMAP
FFC0
7FC0
C030
C030
C030
C030
C030
C030
C030
8010
7FE0
FFE0
C000
C000
C000
C000
C000
C000
C000
C000
8000
ENDCHAR
STARTCHAR Q
ENCODING 81
SWIDTH 481 0
DWIDTH 15 0
BBX 13 21 1 0
BITMAP
FFF0
7FF0
C030
C030
C030
C030
C030
C030
C030
8010
0000
8010
C030
C030
C030
C1B0
C1F0
C0F0
C070
FF38
FF98
ENDCHAR
STARTCHAR R
ENCODING 82
SWIDTH 472 0
DWIDTH 14 0
BBX 12 21 1 0
BITMAP
FFF0
7FF0
C030
C030
C030
C030
C030
C030
C030
8010
7FE0
FFE0
D800
DC00
DE00
CF00
C780
C3C0
C1E0
C0F0
8070
ENDCHAR
STARTCHAR S
ENCODING 83
SWIDTH 472 0
DWIDTH 14 0
BBX 12 21 1 0
BITMAP
FFF0
7FE0
C000
C000
C000
C000
C000
C000
C000
8000
7FE0
7FF0
0030
0030
0030
0030
0030
0030
0030
7FF0
FFF0
ENDCHAR
STARTCHAR T
ENCODING 84
SWIDTH 471 0
DWIDTH 15 0
BBX 11 21 2 0
BITMAP
FFE0
FFE0
0000
0600
0600
0600
0600
0600
0600
0600
0000
0600
0600
0600
0600
0600
0600
0600
0600
0600
0200
ENDCHAR
STARTCHAR U
ENCODING 85
SWIDTH 472 0
DWIDTH 14 0
BBX 12 21 1 0
BITMAP
0010
C030
C030
C030
C030
C030
C030
C030
C030
8010
8000
8010
C030
C030
C030
C030
C030
C030
C030
FFF0
FFF0
ENDCHAR
STARTCHAR V
ENCODING 86
SWIDTH 472 0
DWIDTH 14 0
BBX 12 21 1 0
BITMAP
8010
C030
C030
C030
C030
C030
C030
C030
C030
8010
0000
8010
C030
E070
6060
30C0
39C0
1F80
0F00
0600
0600
ENDCHAR
STARTCHAR W
ENCODING 87
SWIDTH 472 0
DWIDTH 14 0
BBX 12 21 1 0
BITMAP
8010
C030
C030
C030
C030
C030
C030
C030
C030
8010
0000
8610
C630
C630
C630
C630
C630
C630
C030
7FF0
FFF0
ENDCHAR
STARTCHAR X
ENCODING 88
SWIDTH 472 0
DWIDTH 15 0
BBX 13 21 1 0
BITMAP
6030
E038
7070
7070
38E0
38E0
1DC0
1DC0
0D80
0D80
0000
0D80
0D80
1DC0
1DC0
38E0
38E0
7070
7070
E038
6030
ENDCHAR
STARTCHAR Y
ENCODING 89
SWIDTH 472 0
DWIDTH 14 0
BBX 12 21 1 0
BITMAP
0010
8030
C030
C030
C030
C030
C030
C030
C030
8010
7FE0
7FF0
0030
0030
0030
0030
0030
0030
0030
7FF0
FFF0
ENDCHAR
STARTCHAR Z
ENCODING 90
SWIDTH 472 0
DWIDTH 15 0
BBX 12 21 2 0
BITMAP
FF60
FF70
00E0
00E0
01C0
01C0
0380
0380
0300
0300
0000
0C00
1C00
1800
3800
3000
7000
6000
E000
FFC0
DFC0
ENDCHAR
STARTCHAR bracketleft
ENCODING 91
SWIDTH 281 0
DWIDTH 9 0
BBX 6 21 2 0
BITMAP
FC
F0
C0
C0
C0
C0
C0
C0
C0
80
00
80
C0
C0
C0
C0
C0
C0
C0
F0
FC
ENDCHAR
STARTCHAR backslash
ENCODING 92
SWIDTH 470 0
DWIDTH 15 0
BBX 11 21 2 0
BITMAP
C000
E000
E000
7000
7000
3000
3800
1800
1800
0800
0000
0200
0300
0300
0380
0180
01C0
00C0
00E0
0060
0060
ENDCHAR
STARTCHAR bracketright
ENCODING 93
SWIDTH 281 0
DWIDTH 8 0
BBX 6 21 1 0
BITMAP
F4
7C
0C
0C
0C
0C
0C
0C
0C
04
00
04
0C
0C
0C
0C
0C
0C
0C
7C
F4
ENDCHAR
STARTCHAR asciicircum
ENCODING 94
SWIDTH 471 0
DWIDTH 15 0
BBX 13 7 1 13
BITMAP
0500
0D80
1DC0
38E0
7070
E038
4010
ENDCHAR
STARTCHAR underscore
ENCODING 95
SWIDTH 471 0
DWIDTH 15 0
BBX 11 2 2 0
BITMAP
FFE0
FFE0
ENDCHAR
STARTCHAR grave
ENCODING 96
SWIDTH 254 0
DWIDTH 8 0
BBX 5 6 2 16
BITMAP
80
C0
E0
70
38
18
ENDCHAR
STARTCHAR a
ENCODING 97
SWIDTH 472 0
DWIDTH 14 0
BBX 12 21 1 0
BITMAP
FFF0
7FF0
C030
C030
C030
C030
C030
C030
C030
8010
7FE0
FFF0
C030
C030
C030
C030
C030
C030
C030
C030
8010
ENDCHAR
STARTCHAR b
ENCODING 98
SWIDTH 472 0
DWIDTH 14 0
BBX 12 21 1 0
BITMAP
FFC0
7FC0
C030
C030
C030
C030
C030
C030
C030
8010
7FE0
FFF0
C030
C030
C030
C030
C030
C030
C030
7FC0
FFC0
ENDCHAR
STARTCHAR c
ENCODING 99
SWIDTH 436 0
DWIDTH 14 0
BBX 11 21 2 0
BITMAP
FFC0
FFC0
C000
C000
C000
C000
C000
C000
C000
8000
0000
8000
C000
C000
C000
C000
C000
C000
C000
FFC0
FFE0
ENDCHAR
STARTCHAR d
ENCODING 100
SWIDTH 472 0
DWIDTH 14 0
BBX 12 21 1 0
BITMAP
FFC0
7FC0
C030
C030
C030
C030
C030
C030
C030
8010
0000
8010
C030
C030
C030
C030
C030
C030
C030
7FC0
FFC0
ENDCHAR
STARTCHAR e
ENCODING 101
SWIDTH 436 0
DWIDTH 14 0
BBX 11 21 2 0
BITMAP
FFC0
FFC0
C000
C000
C000
C000
C000
C000
C000
8000
7FC0
FFC0
C000
C000
C000
C000
C000
C000
C000
FFC0
FFE0
ENDCHAR
STARTCHAR f
ENCODING 102
SWIDTH 436 0
DWIDTH 14 0
BBX 10 21 2 0
BITMAP
FFC0
FFC0
C000
C000
C000
C000
C000
C000
C000
8000
7FC0
FFC0
C000
C000
C000
C000
C000
C000
C000
C000
8000
ENDCHAR
STARTCHAR g
ENCODING 103
SWIDTH 472 0
DWIDTH 14 0
BBX 12 21 1 0
BITMAP
FFE0
7FC0
C000
C000
C000
C000
C000
C000
C000
8000
01E0
81F0
C030
C030
C030
C030
C030
C030
C030
FFF0
FFF0
ENDCHAR
STARTCHAR h
ENCODING 104
SWIDTH 472 0
DWIDTH 14 0
BBX 12 21 1 0
BITMAP
0010
C030
C030
C030
C030
C030
C030
C030
C030
8010
FFE0
FFF0
C030
C030
C030
C030
C030
C030
C030
C030
8010
ENDCHAR
STARTCHAR i
ENCODING 105
SWIDTH 163 0
DWIDTH 5 0
BBX 2 21 2 0
BITMAP
40
C0
C0
C0
C0
C0
C0
C0
C0
40
00
40
C0
C0
C0
C0
C0
C0
C0
C0
40
ENDCHAR
STARTCHAR j
ENCODING 106
SWIDTH 472 0
DWIDTH 14 0
BBX 12 21 1 0
BITMAP
0010
0030
0030
0030
0030
0030
0030
0030
0030
0010
0000
8010
C030
C030
C030
C030
C030
C030
C030
FFF0
FFF0
ENDCHAR
STARTCHAR k
ENCODING 107
SWIDTH 472 0
DWIDTH 14 0
BBX 12 21 1 0
BITMAP
8070
C0F0
C1E0
C3C0
C780
CF00
DE00
DC00
D800
8000
7FE0
FFF0
C030
C030
C030
C030
C030
C030
C030
C030
8010
ENDCHAR
STARTCHAR l
ENCODING 108
SWIDTH 472 0
DWIDTH 15 0
BBX 11 21 2 0
BITMAP
8000
C000
C000
C000
C000
C000
C000
C000
C000
8000
0000
8000
C000
C000
C000
C000
C000
C000
C000
FFE0
FFE0
ENDCHAR
STARTCHAR m
ENCODING 109
SWIDTH 472 0
DWIDTH 14 0
BBX 12 21 1 0
BITMAP
FFF0
7FF0
C030
C630
C630
C630
C630
C630
C630
8610
0000
8010
C030
C030
C030
C030
C030
C030
C030
C030
8010
ENDCHAR
STARTCHAR n
ENCODING 110
SWIDTH 472 0
DWIDTH 14 0
BBX 12 21 1 0
BITMAP
8010
C030
C030
DC30
DE30
CF30
C7B0
C3F0
C1F0
8010
0000
8010
C030
C030
C030
C030
C030
C030
C030
C030
8010
ENDCHAR
STARTCHAR o
ENCODING 111
SWIDTH 472 0
DWIDTH 14 0
BBX 12 21 1 0
BITMAP
1FC0
1FC0
C030
C030
C030
C030
C030
C030
C030
8010
0000
8010
C030
C030
C030
C030
C030
C030
C030
1FC0
1FC0
ENDCHAR
STARTCHAR p
ENCODING 112
SWIDTH 472 0
DWIDTH 14 0
BBX 12 21 1 0
BITMAP
FFC0
7FC0
C030
C030
C030
C030
C030
C030
C030
8010
7FE0
FFE0
C000
C000
C000
C000
C000
C000
C000
C000
8000
ENDCHAR
STARTCHAR q
ENCODING 113
SWIDTH 481 0
DWIDTH 15 0
BBX 13 21 1 0
BITMAP
FFF0
7FF0
C030
C030
C030
C030
C030
C030
C030
8010
0000
8010
C030
C030
C030
C1B0
C1F0
C0F0
C070
FF38
FF98
ENDCHAR
STARTCHAR r
ENCODING 114
SWIDTH 472 0
DWIDTH 14 0
BBX 12 21 1 0
BITMAP
FFF0
7FF0
C030
C030
C030
C030
C030
C030
C030
8010
7FE0
FFE0
D800
DC00
DE00
CF00
C780
C3C0
C1E0
C0F0
8070
ENDCHAR
STARTCHAR s
ENCODING 115
SWIDTH 472 0
DWIDTH 14 0
BBX 12 21 1 0
BITMAP
FFF0
7FE0
C000
C000
C000
C000
C000
C000
C000
8000
7FE0
7FF0
0030
0030
0030
0030
0030
0030
0030
7FF0
FFF0
ENDCHAR
STARTCHAR t
ENCODING 116
SWIDTH 471 0
DWIDTH 15 0
BBX 11 21 2 0
BITMAP
FFE0
FFE0
0000
0600
0600
0600
0600
0600
0600
0600
0000
0600
0600
0600
0600
0600
0600
0600
0600
0600
0200
ENDCHAR
STARTCHAR u
ENCODING 117
SWIDTH 472 0
DWIDTH 14 0
BBX 12 21 1 0
BITMAP
0010
C030
C030
C030
C030
C030
C030
C030
C030
8010
8000
8010
C030
C030
C030
C030
C030
C030
C030
FFF0
FFF0
ENDCHAR
STARTCHAR v
ENCODING 118
SWIDTH 472 0
DWIDTH 14 0
BBX 12 21 1 0
BITMAP
8010
C030
C030
C030
C030
C030
C030
C030
C030
8010
0000
8010
C030
E070
6060
30C0
39C0
1F80
0F00
0600
0600
ENDCHAR
STARTCHAR w
ENCODING 119
SWIDTH 472 0
DWIDTH 14 0
BBX 12 21 1 0
BITMAP
8010
C030
C030
C030
C030
C030
C030
C030
C030
8010
0000
8610
C630
C630
C630
C630
C630
C630
C030
7FF0
FFF0
ENDCHAR
STARTCHAR x
ENCODING 120
SWIDTH 472 0
DWIDTH 15 0
BBX 13 21 1 0
BITMAP
6030
E038
7070
7070
38E0
38E0
1DC0
1DC0
0D80
0D80
0000
0D80
0D80
1DC0
1DC0
38E0
38E0
7070
7070
E038
6030
ENDCHAR
STARTCHAR y
ENCODING 121
SWIDTH 472 0
DWIDTH 14 0
BBX 12 21 1 0
BITMAP
0010
8030
C030
C030
C030
C030
C030
C030
C030
8010
7FE0
7FF0
0030
0030
0030
0030
0030
0030
0030
7FF0
FFF0
ENDCHAR
STARTCHAR z
ENCODING 122
SWIDTH 472 0
DWIDTH 15 0
BBX 12 21 2 0
BITMAP
FF60
FF70
00E0
00E0
01C0
01C0
0380
0380
0300
0300
0000
0C00
1C00
1800
3800
3000
7000
6000
E000
FFC0
DFC0
ENDCHAR
STARTCHAR braceleft
ENCODING 123
SWIDTH 390 0
DWIDTH 13 0
BBX 9 21 2 0
BITMAP
1F80
0F00
1800
1800
1800
1800
1800
1800
1800
0800
E000
E800
1800
1800
1800
1800
1800
1800
1800
0F00
1F80
ENDCHAR
STARTCHAR bar
ENCODING 124
SWIDTH 163 0
DWIDTH 5 0
BBX 2 21 2 0
BITMAP
40
C0
C0
C0
C0
C0
C0
C0
C0
C0
C0
C0
C0
C0
C0
C0
C0
C0
C0
C0
40
ENDCHAR
STARTCHAR braceright
ENCODING 125
SWIDTH 390 0
DWIDTH 13 0
BBX 10 21 1 0
BITMAP
FC00
3C00
0C00
0C00
0C00
0C00
0C00
0C00
0C00
0800
0380
0BC0
0C00
0C00
0C00
0C00
0C00
0C00
0C00
3C00
FC00
ENDCHAR
STARTCHAR asciitilde
ENCODING 126
SWIDTH 490 0
DWIDTH 16 0
BBX 12 6 2 10
BITMAP
3800
3800
C670
C670
01C0
0180
ENDCHAR
STARTCHAR copyright
ENCODING 169
SWIDTH 527 0
DWIDTH 16 0
BBX 13 21 2 0
BITMAP
FFF8
FFF8
C018
C018
C018
DFD8
DF98
D818
D818
D818
D818
D818
D818
D818
DF98
DF98
C018
C018
C018
FFF8
FFF8
ENDCHAR
STARTCHAR endash
ENCODING 8211
SWIDTH 490 0
DWIDTH 16 0
BBX 12 2 2 9
BITMAP
FFF0
FFF0
ENDCHAR
STARTCHAR emdash
ENCODING 8212
SWIDTH 527 0
DWIDTH 17 0
BBX 13 2 2 9
BITMAP
FFF8
FFF8
ENDCHAR
STARTCHAR quoteleft
ENCODING 8216
SWIDTH 163 0
DWIDTH 5 0
BBX 2 6 2 15
BITMAP
80
C0
C0
C0
C0
C0
ENDCHAR
STARTCHAR quoteright
ENCODING 8217
SWIDTH 163 0
DWIDTH 5 0
BBX 2 6 2 15
BITMAP
C0
C0
C0
C0
C0
80
ENDCHAR
STARTCHAR quotedblleft
ENCODING 8220
SWIDTH 309 0
DWIDTH 9 0
BBX 7 6 1 15
BITMAP
84
C6
C6
C6
C6
C6
ENDCHAR
STARTCHAR quotedblright
ENCODING 8221
SWIDTH 310 0
DWIDTH 9 0
BBX 7 6 1 15
BITMAP
C6
C6
C6
C6
C6
84
ENDCHAR
STARTCHAR bullet
ENCODING 8226
SWIDTH 354 0
DWIDTH 11 0
BBX 9 9 1 6
BITMAP
1E00
3F00
7F00
7F80
FF80
7F80
7F00
3F00
1E00
ENDCHAR
STARTCHAR perthousand
ENCODING 8240
SWIDTH 536 0
DWIDTH 17 0
BBX 15 21 1 0
BITMAP
7800
EC1C
8C3C
CC78
C4F0
DDE0
79C0
0380
0600
0E00
1C00
3800
7000
6000
1E3C
3B76
2346
3366
3162
376E
163C
ENDCHAR
STARTCHAR .notdef
ENCODING -1
SWIDTH 527 0
DWIDTH 16 0
BBX 14 21 1 0
BITMAP
FFFC
7FFC
C00C
C00C
C00C
C00C
C00C
C00C
C00C
C00C
C00C
C00C
C00C
C00C
C00C
C00C
C00C
C00C
C00C
FFFC
FFFC
ENDCHAR
STARTCHAR NULL
ENCODING -1
SWIDTH 454 0
DWIDTH 15 0
BBX 1 1 0 0
BITMAP
00
ENDCHAR
STARTCHAR nonmarkingreturn
ENCODING -1
SWIDTH 454 0
DWIDTH 15 0
BBX 1 1 0 0
BITMAP
00
ENDCHAR
ENDFONT
